<?xml version="1.0" encoding="iso-8859-1"?>
<!-- Generator: Adobe Illustrator 19.0.0, SVG Export Plug-In . SVG Version: 6.00 Build 0)  -->
<svg xmlns="http://www.w3.org/2000/svg" xmlns:xlink="http://www.w3.org/1999/xlink" version="1.1" id="Layer_1" x="0px" y="0px" viewBox="0 0 512 512" style="enable-background:new 0 0 512 512;" xml:space="preserve">
<path style="fill:#FFDC64;" d="M475.919,466.756H36.081c-15.182,0-27.49-12.307-27.49-27.49V127.714  c0-15.182,12.307-27.49,27.49-27.49h439.839c15.182,0,27.49,12.307,27.49,27.49v311.553  C503.409,454.449,491.102,466.756,475.919,466.756z"/>
<path style="fill:#FFC850;" d="M466.756,439.266H45.244c-5.06,0-9.163-4.103-9.163-9.163V136.877c0-5.06,4.103-9.163,9.163-9.163  h421.512c5.06,0,9.163,4.103,9.163,9.163v293.226C475.919,435.163,471.817,439.266,466.756,439.266z"/>
<path style="fill:#00C3FF;" d="M364.809,356.106L183.384,174.681c-3.578-3.578-9.38-3.578-12.958,0l-25.917,25.917  c-3.579,3.578-3.579,9.38,0,12.959l181.424,181.424c3.579,3.579,9.38,3.579,12.959,0l25.917-25.917  C368.387,365.486,368.387,359.684,364.809,356.106z"/>
<path style="fill:#FF507D;" d="M209.301,369.065l-55.225,22.09c-3.606,1.442-7.184-2.136-5.742-5.742l22.09-55.225l155.507-155.507  c3.578-3.578,9.381-3.578,12.959,0l25.917,25.917c3.578,3.578,3.578,9.381,0,12.959L209.301,369.065z"/>
<g>
	<path style="fill:#D23C69;" d="M349.891,228.477l14.918-14.918c3.578-3.579,3.578-9.381,0-12.959l-25.917-25.917   c-3.579-3.578-9.38-3.578-12.959,0L311.014,189.6L349.891,228.477z"/>
	<path style="fill:#D23C69;" d="M170.426,330.188l-22.09,55.225c-1.442,3.606,2.136,7.183,5.742,5.741l55.225-22.09L170.426,330.188   z"/>
</g>
<path style="fill:#FFC850;" d="M8.591,127.714v42.621c5.74,2.032,11.891,3.196,18.327,3.196c30.365,0,54.98-24.615,54.98-54.98  c0-6.436-1.164-12.587-3.196-18.327H36.081C20.898,100.224,8.591,112.531,8.591,127.714z"/>
<path style="fill:#E1A546;" d="M36.081,172.706c23.007-3.868,41.124-21.985,44.992-44.992H45.244c-5.06,0-9.163,4.103-9.163,9.163  V172.706z"/>
<path style="fill:#FFC850;" d="M503.409,127.714v42.621c-5.74,2.032-11.891,3.196-18.327,3.196c-30.365,0-54.98-24.615-54.98-54.98  c0-6.436,1.164-12.587,3.196-18.327h42.621C491.102,100.224,503.409,112.531,503.409,127.714z"/>
<path style="fill:#E1A546;" d="M475.919,172.706c-23.007-3.868-41.124-21.985-44.992-44.992h35.829c5.06,0,9.163,4.103,9.163,9.163  V172.706z"/>
<path style="fill:#FFC850;" d="M503.409,439.266v-42.621c-5.74-2.032-11.891-3.196-18.327-3.196c-30.365,0-54.98,24.615-54.98,54.98  c0,6.436,1.164,12.587,3.196,18.327h42.621C491.102,466.756,503.409,454.449,503.409,439.266z"/>
<path style="fill:#E1A546;" d="M475.919,394.274c-23.007,3.868-41.124,21.985-44.992,44.992h35.829c5.06,0,9.163-4.103,9.163-9.163  V394.274z"/>
<path style="fill:#FFC850;" d="M8.591,439.266v-42.621c5.74-2.032,11.891-3.196,18.327-3.196c30.365,0,54.98,24.615,54.98,54.98  c0,6.436-1.164,12.587-3.196,18.327H36.081C20.898,466.756,8.591,454.449,8.591,439.266z"/>
<path style="fill:#E1A546;" d="M36.081,394.274c23.007,3.868,41.124,21.985,44.992,44.992H45.244c-5.06,0-9.163-4.103-9.163-9.163  V394.274z"/>
<path d="M475.919,91.633H327.421l-5.416-32.487c-2.172-13.033-13.338-22.492-26.551-22.492h-78.91  c-13.213,0-24.379,9.46-26.551,22.492l-5.416,32.487H36.081C16.186,91.633,0,107.819,0,127.714v311.553  c0,19.895,16.186,36.081,36.081,36.081h439.839c19.895,0,36.081-16.186,36.081-36.081V127.714  C512,107.819,495.814,91.633,475.919,91.633z M206.942,61.97c0.786-4.713,4.824-8.136,9.603-8.136h78.91  c4.779,0,8.817,3.421,9.603,8.136l4.944,29.663H201.997L206.942,61.97z M494.819,439.266c0,10.421-8.478,18.899-18.899,18.899  H36.081c-10.421,0-18.899-8.478-18.899-18.899V127.714c0-10.421,8.478-18.899,18.899-18.899h439.839  c10.421,0,18.899,8.478,18.899,18.899V439.266z"/>
<path d="M370.883,194.524l-25.917-25.918c-6.923-6.922-18.185-6.922-25.107,0l-65.199,65.199l-65.199-65.199  c-3.354-3.354-7.812-5.2-12.554-5.2c-4.742,0-9.201,1.848-12.554,5.2l-25.917,25.917c-3.354,3.353-5.201,7.812-5.201,12.554  c0,4.742,1.846,9.201,5.2,12.554l65.199,65.199l-39.281,39.282c-0.822,0.822-1.47,1.804-1.901,2.884l-25.917,64.795  c-1.276,3.191-0.528,6.835,1.901,9.265c1.643,1.643,3.839,2.516,6.076,2.516c1.073,0,2.155-0.202,3.189-0.615l64.794-25.917  c1.08-0.432,2.061-1.079,2.884-1.901l39.282-39.282l65.199,65.199c3.461,3.46,8.008,5.191,12.554,5.191s9.093-1.731,12.554-5.191  l25.918-25.918c6.921-6.922,6.921-18.185,0-25.107l-65.199-65.199l65.2-65.199C377.806,212.71,377.806,201.447,370.883,194.524z   M209.301,356.916l-26.727-26.727l123.92-123.92l26.727,26.728L209.301,356.916z M150.582,207.484  c-0.041-0.041-0.167-0.167-0.167-0.405c0-0.237,0.126-0.363,0.167-0.405l25.918-25.917c0.041-0.041,0.167-0.167,0.404-0.167  c0.237,0,0.363,0.126,0.405,0.167l13.364,13.364l-6.884,6.884c-3.355,3.355-3.355,8.794,0,12.149  c1.677,1.678,3.876,2.516,6.074,2.516s4.397-0.838,6.074-2.516l6.885-6.885l13.769,13.769l-6.884,6.884  c-3.355,3.355-3.355,8.794,0,12.149c1.677,1.678,3.876,2.516,6.074,2.516c2.198,0,4.397-0.838,6.074-2.516l6.885-6.885  l13.769,13.769l-26.728,26.728L150.582,207.484z M173.563,345.474l20.453,20.452l-34.088,13.635L173.563,345.474z M307.304,310.75  l-6.884,6.884c-3.355,3.355-3.355,8.794,0,12.149c1.677,1.677,3.876,2.516,6.074,2.516s4.397-0.838,6.074-2.516l6.884-6.884  l13.769,13.769l-6.885,6.884c-3.355,3.355-3.355,8.795,0,12.149c1.677,1.678,3.876,2.516,6.074,2.516s4.397-0.838,6.074-2.516  l6.885-6.885l13.364,13.364c0.223,0.223,0.223,0.586,0,0.811l-25.917,25.917c-0.223,0.223-0.586,0.225-0.811,0l-65.199-65.199  l26.728-26.728L307.304,310.75z M358.734,207.484l-13.364,13.364l-26.727-26.728l13.364-13.364c0.223-0.223,0.586-0.225,0.811,0  l25.917,25.917C358.958,206.897,358.958,207.26,358.734,207.484z"/>
<path d="M81.897,128.286c-4.744,0-8.591,3.846-8.591,8.591c0,15.473-12.589,28.063-28.063,28.063c-4.744,0-8.591,3.846-8.591,8.591  c0,4.744,3.846,8.591,8.591,8.591c24.947,0,45.244-20.297,45.244-45.244C90.488,132.133,86.641,128.286,81.897,128.286z"/>
<path d="M45.244,384.859c-4.744,0-8.591,3.846-8.591,8.591c0,4.744,3.846,8.591,8.591,8.591c15.473,0,28.063,12.589,28.063,28.063  c0,4.744,3.846,8.591,8.591,8.591c4.744,0,8.591-3.846,8.591-8.591C90.488,405.156,70.191,384.859,45.244,384.859z"/>
<path d="M466.756,384.859c-24.947,0-45.244,20.297-45.244,45.244c0,4.744,3.846,8.591,8.591,8.591s8.591-3.846,8.591-8.591  c0-15.473,12.589-28.063,28.063-28.063c4.744,0,8.591-3.846,8.591-8.591C475.347,388.705,471.5,384.859,466.756,384.859z"/>
<path d="M466.756,164.94c-15.473,0-28.063-12.589-28.063-28.063c0-4.744-3.846-8.591-8.591-8.591s-8.591,3.846-8.591,8.591  c0,24.947,20.297,45.244,45.244,45.244c4.744,0,8.591-3.846,8.591-8.591C475.347,168.786,471.5,164.94,466.756,164.94z"/>
<g>
</g>
<g>
</g>
<g>
</g>
<g>
</g>
<g>
</g>
<g>
</g>
<g>
</g>
<g>
</g>
<g>
</g>
<g>
</g>
<g>
</g>
<g>
</g>
<g>
</g>
<g>
</g>
<g>
</g>
</svg>
